<?xml version="1.0" encoding="utf-8"?>
<!-- Generator: Adobe Illustrator 19.1.0, SVG Export Plug-In . SVG Version: 6.00 Build 0)  -->
<svg version="1.1" id="Capa_1" xmlns="http://www.w3.org/2000/svg" xmlns:xlink="http://www.w3.org/1999/xlink" x="0px" y="0px"
	 viewBox="0 0 319.5 94" style="enable-background:new 0 0 319.5 94;" xml:space="preserve">
<style type="text/css">
	.st0{fill-rule:evenodd;clip-rule:evenodd;fill:url(#SVGID_1_);}
	.st1{fill-rule:evenodd;clip-rule:evenodd;fill:url(#SVGID_2_);}
	.st2{fill-rule:evenodd;clip-rule:evenodd;fill:url(#SVGID_3_);}
	.st3{fill:none;stroke:#2C2B66;stroke-width:2;stroke-miterlimit:10;}
	.st4{fill:none;stroke:#BBD041;stroke-width:3;stroke-miterlimit:10;}
	.st5{fill:none;stroke:#5E5E5E;stroke-width:2;stroke-miterlimit:10;}
	.st6{fill:none;stroke:#E63637;stroke-width:2;stroke-miterlimit:10;}
	.st7{fill:none;stroke:url(#SVGID_4_);stroke-width:3;stroke-miterlimit:10;}
	.st8{fill:#2C2B66;}
</style>
<g>
	<linearGradient id="SVGID_1_" gradientUnits="userSpaceOnUse" x1="87.1374" y1="64.7095" x2="49.1977" y2="64.7095">
		<stop  offset="0" style="stop-color:#0766AD"/>
		<stop  offset="1" style="stop-color:#3FA9F5"/>
	</linearGradient>
	<path class="st0" d="M86.1,53.3c0,8.6-6.2,16.1-15.8,18.1c-7.5,1.6-15.4-0.5-21.1-5.1c4.9,7.2,14.5,11.2,23.6,9.3
		c10.9-2.3,16.8-12.2,13.4-22.2C86.1,53.4,86.1,53.4,86.1,53.3z"/>
	<linearGradient id="SVGID_2_" gradientUnits="userSpaceOnUse" x1="59.6994" y1="48.938" x2="89.8355" y2="48.938">
		<stop  offset="2.247200e-002" style="stop-color:#603D37"/>
		<stop  offset="0.427" style="stop-color:#D54D1D"/>
		<stop  offset="0.736" style="stop-color:#EA7624"/>
		<stop  offset="1" style="stop-color:#F7BE29"/>
	</linearGradient>
	<path class="st1" d="M59.7,37.1c7.8-3.5,17.2-0.9,23,7.1c4.5,6.2,5.8,14.2,4,21.3c4.5-7.4,4.3-17.8-1.1-25.3
		c-6.5-9-18-10.4-25.7-3.2C59.8,37,59.7,37.1,59.7,37.1z"/>
	<linearGradient id="SVGID_3_" gradientUnits="userSpaceOnUse" x1="44.8877" y1="51.3059" x2="67.3579" y2="51.3059">
		<stop  offset="2.247200e-002" style="stop-color:#2C9400"/>
		<stop  offset="0.1064" style="stop-color:#60AC2E"/>
		<stop  offset="0.1901" style="stop-color:#8DC055"/>
		<stop  offset="0.2701" style="stop-color:#AFD074"/>
		<stop  offset="0.3454" style="stop-color:#C8DC89"/>
		<stop  offset="0.4144" style="stop-color:#D7E396"/>
		<stop  offset="0.4709" style="stop-color:#DCE59B"/>
	</linearGradient>
	<path class="st2" d="M57.4,70.2c-7.1-4.9-9.8-14.2-6.1-23.2c2.9-7.1,9.1-12.4,16-14.6c-8.7,0-17.4,5.7-21,14.3
		C42.2,56.9,47,67.4,57.2,70.2C57.3,70.2,57.3,70.2,57.4,70.2z"/>
</g>
<g>
	<line class="st3" x1="269.6" y1="66" x2="290.5" y2="50.1"/>
	<line class="st3" x1="300.9" y1="53.9" x2="306.9" y2="77.1"/>
	<line class="st3" x1="294.1" y1="16.2" x2="297.2" y2="33.7"/>
	<line class="st3" x1="288.7" y1="40.9" x2="272.6" y2="36.6"/>
	<line class="st3" x1="270.8" y1="31.2" x2="289.1" y2="14.5"/>
	<circle class="st4" cx="263.1" cy="71.9" r="8.7"/>
	<circle class="st5" cx="267.6" cy="35.3" r="5.2"/>
	<circle class="st6" cx="293.1" cy="11.2" r="5.2"/>
	<circle class="st5" cx="306.9" cy="82.3" r="5.2"/>
	<linearGradient id="SVGID_4_" gradientUnits="userSpaceOnUse" x1="288.2506" y1="43.8709" x2="308.4073" y2="43.8709">
		<stop  offset="0" style="stop-color:#0766AD"/>
		<stop  offset="1" style="stop-color:#3FA9F5"/>
	</linearGradient>
	<circle class="st7" cx="298.3" cy="43.9" r="8.6"/>
</g>
<g>
	<path class="st8" d="M37.7,40.3c-0.3,0.6-0.8,0.9-1.5,0.9c-0.4,0-0.9-0.1-1.4-0.4c-0.5-0.3-1.1-0.6-1.9-1c-0.7-0.4-1.6-0.7-2.7-1
		c-1-0.3-2.3-0.5-3.7-0.5c-1.2,0-2.3,0.2-3.3,0.5s-1.8,0.7-2.5,1.3c-0.7,0.5-1.2,1.2-1.6,1.9c-0.4,0.7-0.5,1.5-0.5,2.3
		c0,1.1,0.3,1.9,0.9,2.6c0.6,0.7,1.4,1.3,2.4,1.8c1,0.5,2.1,1,3.4,1.4c1.3,0.4,2.6,0.8,3.9,1.3s2.6,0.9,3.9,1.5
		c1.3,0.5,2.4,1.2,3.4,2c1,0.8,1.8,1.8,2.4,3c0.6,1.2,0.9,2.6,0.9,4.2c0,1.9-0.3,3.7-1,5.3c-0.7,1.6-1.7,3-3,4.2
		c-1.3,1.2-3,2.1-4.9,2.8s-4.1,1-6.7,1c-2.9,0-5.5-0.5-7.8-1.4c-2.3-0.9-4.3-2.1-5.9-3.6l1.7-2.8c0.2-0.4,0.5-0.6,0.8-0.8
		c0.3-0.2,0.7-0.3,1.2-0.3c0.5,0,1,0.2,1.5,0.6c0.5,0.4,1.2,0.8,2,1.3c0.8,0.5,1.7,0.9,2.8,1.3c1.1,0.4,2.5,0.6,4.1,0.6
		c1.4,0,2.6-0.2,3.7-0.5c1.1-0.4,1.9-0.9,2.6-1.5c0.7-0.6,1.2-1.3,1.6-2.2c0.3-0.8,0.5-1.7,0.5-2.6c0-1.1-0.3-2.1-0.9-2.8
		c-0.6-0.7-1.4-1.4-2.4-1.9c-1-0.5-2.1-1-3.4-1.4c-1.3-0.4-2.6-0.8-3.9-1.2s-2.7-0.9-3.9-1.5c-1.3-0.6-2.4-1.3-3.4-2.1
		c-1-0.8-1.8-1.9-2.4-3.1c-0.6-1.2-0.9-2.7-0.9-4.5c0-1.6,0.3-3.1,1-4.5c0.7-1.5,1.6-2.7,2.8-3.8c1.2-1.1,2.8-2,4.6-2.6
		c1.8-0.7,3.9-1,6.2-1c2.7,0,5.1,0.4,7.3,1.3c2.2,0.9,4,2,5.6,3.5L37.7,40.3z"/>
	<path class="st8" d="M95.7,74.7V33.5h4.3c1,0,1.7,0.5,2,1.5l0.6,4.5c1.8-2,3.8-3.6,6-4.8c2.2-1.2,4.8-1.8,7.7-1.8
		c2.3,0,4.2,0.4,6,1.1c1.7,0.7,3.2,1.8,4.3,3.2s2,3,2.6,4.9c0.6,1.9,0.9,4.1,0.9,6.4v26.2h-7.2V48.5c0-3.1-0.7-5.5-2.1-7.3
		s-3.6-2.6-6.5-2.6c-2.1,0-4.1,0.5-6,1.5c-1.9,1-3.6,2.4-5.1,4.2v30.3H95.7z"/>
	<path class="st8" d="M168.1,74.7h-3.2c-0.7,0-1.3-0.1-1.7-0.3c-0.4-0.2-0.7-0.7-0.9-1.4l-0.8-3.8c-1.1,1-2.1,1.8-3.2,2.6
		c-1,0.8-2.1,1.4-3.3,2c-1.1,0.5-2.4,0.9-3.6,1.2c-1.3,0.3-2.7,0.4-4.3,0.4c-1.6,0-3.1-0.2-4.5-0.7c-1.4-0.4-2.6-1.1-3.6-2
		c-1-0.9-1.9-2-2.5-3.4c-0.6-1.4-0.9-3-0.9-4.9c0-1.6,0.4-3.2,1.3-4.7s2.3-2.8,4.3-4c2-1.2,4.6-2.1,7.8-2.9
		c3.2-0.7,7.2-1.1,11.8-1.1v-3.2c0-3.2-0.7-5.7-2.1-7.3s-3.4-2.5-6.1-2.5c-1.8,0-3.2,0.2-4.5,0.7c-1.2,0.4-2.3,0.9-3.1,1.5
		c-0.9,0.6-1.6,1.1-2.3,1.5c-0.6,0.4-1.3,0.7-1.9,0.7c-0.5,0-0.9-0.1-1.3-0.4c-0.4-0.3-0.7-0.6-0.9-1l-1.3-2.3
		c2.3-2.2,4.7-3.8,7.4-4.9c2.6-1.1,5.5-1.6,8.7-1.6c2.3,0,4.4,0.4,6.1,1.1c1.8,0.8,3.3,1.8,4.5,3.2c1.2,1.4,2.1,3,2.8,4.9
		c0.6,1.9,0.9,4,0.9,6.3V74.7z M149.3,70.3c1.3,0,2.4-0.1,3.5-0.4c1.1-0.3,2.1-0.6,3-1.1c0.9-0.5,1.8-1,2.7-1.7
		c0.9-0.7,1.7-1.5,2.5-2.3v-8.5c-3.3,0-6.2,0.2-8.5,0.6c-2.3,0.4-4.2,1-5.7,1.7s-2.5,1.5-3.2,2.4c-0.7,0.9-1,2-1,3.1
		c0,1.1,0.2,2,0.5,2.8c0.4,0.8,0.8,1.4,1.4,1.9c0.6,0.5,1.3,0.9,2.1,1.1C147.5,70.2,148.4,70.3,149.3,70.3z"/>
	<path class="st8" d="M188.6,75.4c-3.3,0-5.8-0.9-7.5-2.7c-1.7-1.8-2.6-4.4-2.6-7.8V39.6h-5c-0.4,0-0.8-0.1-1.1-0.4
		c-0.3-0.3-0.4-0.7-0.4-1.2v-2.9l6.8-0.9l1.7-12.7c0.1-0.4,0.2-0.7,0.5-1c0.3-0.3,0.7-0.4,1.1-0.4h3.7v14.2h11.8v5.2h-11.8v24.7
		c0,1.7,0.4,3,1.3,3.9c0.8,0.8,1.9,1.3,3.3,1.3c0.8,0,1.4-0.1,2-0.3c0.6-0.2,1-0.4,1.4-0.7s0.8-0.5,1-0.7c0.3-0.2,0.5-0.3,0.8-0.3
		c0.4,0,0.7,0.2,1,0.7l2.1,3.5c-1.2,1.2-2.8,2.1-4.5,2.7C192.3,75,190.5,75.4,188.6,75.4z"/>
	<path class="st8" d="M234.7,74.7h-3.2c-0.7,0-1.3-0.1-1.7-0.3c-0.4-0.2-0.7-0.7-0.9-1.4l-0.8-3.8c-1.1,1-2.1,1.8-3.2,2.6
		c-1,0.8-2.1,1.4-3.3,2c-1.1,0.5-2.4,0.9-3.6,1.2c-1.3,0.3-2.7,0.4-4.3,0.4c-1.6,0-3.1-0.2-4.5-0.7c-1.4-0.4-2.6-1.1-3.6-2
		c-1-0.9-1.9-2-2.5-3.4c-0.6-1.4-0.9-3-0.9-4.9c0-1.6,0.4-3.2,1.3-4.7s2.3-2.8,4.3-4c2-1.2,4.6-2.1,7.8-2.9
		c3.2-0.7,7.2-1.1,11.8-1.1v-3.2c0-3.2-0.7-5.7-2.1-7.3s-3.4-2.5-6.1-2.5c-1.8,0-3.2,0.2-4.5,0.7c-1.2,0.4-2.3,0.9-3.1,1.5
		c-0.9,0.6-1.6,1.1-2.3,1.5c-0.6,0.4-1.3,0.7-1.9,0.7c-0.5,0-0.9-0.1-1.3-0.4c-0.4-0.3-0.7-0.6-0.9-1l-1.3-2.3
		c2.3-2.2,4.7-3.8,7.4-4.9c2.6-1.1,5.5-1.6,8.7-1.6c2.3,0,4.4,0.4,6.1,1.1c1.8,0.8,3.3,1.8,4.5,3.2c1.2,1.4,2.1,3,2.8,4.9
		c0.6,1.9,0.9,4,0.9,6.3V74.7z M215.9,70.3c1.3,0,2.4-0.1,3.5-0.4c1.1-0.3,2.1-0.6,3-1.1c0.9-0.5,1.8-1,2.7-1.7
		c0.9-0.7,1.7-1.5,2.5-2.3v-8.5c-3.3,0-6.2,0.2-8.5,0.6c-2.3,0.4-4.2,1-5.7,1.7s-2.5,1.5-3.2,2.4c-0.7,0.9-1,2-1,3.1
		c0,1.1,0.2,2,0.5,2.8c0.4,0.8,0.8,1.4,1.4,1.9c0.6,0.5,1.3,0.9,2.1,1.1C214.1,70.2,215,70.3,215.9,70.3z"/>
</g>
</svg>
